<?xml version="1.0" encoding="UTF-8" standalone="no"?>
<svg width="214px" height="33px" viewBox="0 0 214 33" version="1.1" xmlns="http://www.w3.org/2000/svg" xmlns:xlink="http://www.w3.org/1999/xlink">
    <!-- Generator: Sketch 50.2 (55047) - http://www.bohemiancoding.com/sketch -->
    <title>Home---New-Content-v3</title>
    <desc>Created with Sketch.</desc>
    <defs></defs>
    <g id="Page-1" stroke="none" stroke-width="1" fill="none" fill-rule="evenodd">
        <g id="Home---New-Content-v3" fill-rule="nonzero">
            <g id="Home_v3c">
                <g id="Header">
                    <g id="Logo">
                        <path d="M145,20.26 C144.877028,20.6316533 144.675845,20.9726413 144.41,21.26 C144.179005,21.5137414 143.891128,21.7090861 143.57,21.83 C143.251062,21.9527449 142.911721,22.0138263 142.57,22.01 C142.084549,22.0203861 141.607199,21.8844983 141.2,21.62 C140.794802,21.3484663 140.475611,20.9668246 140.28,20.52 C140.050142,19.9900286 139.934302,19.4176433 139.94,18.84 C139.936549,18.2626315 140.063003,17.6918801 140.31,17.17 C140.542386,16.7490524 140.889052,16.4023858 141.31,16.17 C141.701111,15.9307212 142.151518,15.8059932 142.61,15.81 C143.012185,15.8104662 143.408947,15.902816 143.77,16.08 C144.094273,16.2415826 144.375371,16.4781162 144.59,16.77 C144.812167,17.071138 144.978161,17.4099009 145.08,17.77 C145.18903,18.1366579 145.242953,18.5174861 145.24,18.9 C145.243065,19.3853246 145.168801,19.8680394 145.02,20.33 L145,20.26 Z M145.09,7.66 L145.09,12.57 C145.09,12.74 145.09,12.87 145.09,12.98 L145.09,13.14 L145,13.14 L144.83,12.99 C144.657421,12.8444104 144.465621,12.7232731 144.26,12.63 C143.91481,12.4717972 143.552368,12.3543391 143.18,12.28 C142.623275,12.1713851 142.057217,12.1177937 141.49,12.12 C140.646329,12.1157728 139.810197,12.2789204 139.03,12.6 C138.299709,12.9232707 137.648103,13.4008873 137.12,14 C136.556228,14.612444 136.123996,15.3339638 135.85,16.12 C135.543652,17.0075932 135.391455,17.9410656 135.4,18.88 C135.391807,19.810756 135.537087,20.7364979 135.83,21.62 C136.094962,22.4022751 136.509296,23.1256612 137.05,23.75 C137.580094,24.3375469 138.227306,24.8076271 138.95,25.13 C139.735944,25.4563384 140.579003,25.6229105 141.43,25.62 C141.923597,25.6215156 142.414994,25.5542009 142.89,25.42 C143.274815,25.314296 143.644494,25.159703 143.99,24.96 C144.261054,24.8033274 144.512777,24.6153743 144.74,24.4 C144.900057,24.2632002 145.044289,24.1089053 145.17,23.94 C145.221552,23.8804162 145.268362,23.8168889 145.31,23.75 L145.36,23.75 L145.36,23.96 C145.36,24.1 145.36,24.27 145.36,24.47 L145.36,25.32 L149.57,25.32 L149.57,7.66 L145.09,7.66 Z" id="Fill-1" fill="#FFFFFF"></path>
                        <path d="M112.18,17.21 C112.256641,16.8912524 112.385009,16.5872222 112.56,16.31 C112.730799,16.0302129 112.967749,15.7966961 113.25,15.63 C113.585141,15.450534 113.959839,15.357719 114.34,15.36 C114.669226,15.360728 114.991569,15.4543115 115.27,15.63 C115.530229,15.7970367 115.743607,16.0276229 115.89,16.3 C116.034297,16.5816556 116.109696,16.8935331 116.11,17.21 L112.18,17.21 Z M120.18,15.86 C119.927582,15.1152106 119.518382,14.4332111 118.98,13.86 C118.436106,13.2901015 117.773898,12.8463543 117.04,12.56 C116.197006,12.2400861 115.301608,12.0806783 114.4,12.09 C113.406257,12.0826806 112.419709,12.258971 111.49,12.61 C110.671243,12.9298939 109.92613,13.4130261 109.3,14.03 C108.720746,14.6552611 108.278019,15.3942757 108,16.2 C107.683782,17.040845 107.5212,17.9316613 107.52,18.83 C107.524759,19.5082565 107.629209,20.1821286 107.83,20.83 C108.031205,21.4856645 108.338621,22.1038755 108.74,22.66 C109.143976,23.2409135 109.644561,23.7482634 110.22,24.16 C110.850122,24.5990514 111.545246,24.9364901 112.28,25.16 C113.123216,25.4129836 113.999685,25.5377119 114.88,25.53 C115.551952,25.5361778 116.222577,25.4691153 116.88,25.33 C117.421801,25.2208684 117.953622,25.0670081 118.47,24.87 C118.877581,24.7149672 119.272163,24.527708 119.65,24.31 C119.903283,24.1730555 120.147157,24.0193816 120.38,23.85 L120.63,23.66 L118.97,20.66 L118.66,20.86 C118.398323,21.0245142 118.127927,21.1747343 117.85,21.31 C117.466604,21.4903276 117.068486,21.6375308 116.66,21.75 C116.211609,21.8820631 115.747378,21.9527068 115.28,21.96 C114.811626,21.9641338 114.346726,21.879298 113.91,21.71 C113.480994,21.5559573 113.098771,21.2942549 112.8,20.95 C112.474234,20.5855863 112.253093,20.1398488 112.16,19.66 L120.61,19.66 C120.605631,19.6100954 120.605631,19.5599046 120.61,19.51 L120.61,19.15 C120.61,19 120.61,18.85 120.61,18.7 C120.61,18.55 120.61,18.42 120.61,18.31 C120.617207,17.4691513 120.478484,16.6334264 120.2,15.84 L120.18,15.86 Z" id="Fill-3" fill="#FFFFFF"></path>
                        <path d="M78.29,20.26 C78.1741597,20.6326348 77.9759269,20.9744154 77.71,21.26 C77.4773093,21.5117784 77.1899305,21.7067855 76.87,21.83 C76.5510619,21.9527449 76.2117209,22.0138263 75.87,22.01 C75.3843888,22.0216368 74.9066768,21.8856458 74.5,21.62 C74.0948021,21.3484663 73.7756109,20.9668246 73.58,20.52 C73.3501423,19.9900286 73.2343024,19.4176433 73.24,18.84 C73.2315723,18.2621126 73.3582728,17.6902483 73.61,17.17 C73.8445345,16.7506734 74.1906734,16.4045345 74.61,16.17 C75.0052711,15.9318593 75.4585426,15.8072962 75.92,15.81 C76.3221851,15.8104662 76.7189475,15.902816 77.08,16.08 C77.4042729,16.2415826 77.6853708,16.4781162 77.9,16.77 C78.1181428,17.0735641 78.2837778,17.4115948 78.39,17.77 C78.4941349,18.1377094 78.547958,18.517835 78.55,18.9 C78.5551292,19.3862717 78.4773491,19.8698612 78.32,20.33 L78.29,20.26 Z M78.39,7.66 L78.39,12.57 C78.39,12.74 78.39,12.87 78.39,12.98 L78.39,13.14 L78.22,12.99 C78.0474213,12.8444104 77.8556207,12.7232731 77.65,12.63 C77.3042388,12.4732677 76.9419681,12.3558652 76.57,12.28 C76.0132019,12.1718929 75.4471934,12.1183063 74.88,12.12 C74.0363286,12.1157728 73.2001969,12.2789204 72.42,12.6 C71.670264,12.9143501 71.0005158,13.3927417 70.46,14 C69.8962277,14.612444 69.4639964,15.3339638 69.19,16.12 C68.8791207,17.0064447 68.726794,17.9407153 68.74,18.88 C68.7267119,19.8111238 68.8721248,20.7377084 69.17,21.62 C69.4308962,22.4041008 69.8456642,23.1282448 70.39,23.75 C70.9180686,24.3397947 71.5657947,24.8102484 72.29,25.13 C73.0757093,25.4571126 73.9189254,25.6237158 74.77,25.62 C75.2635969,25.6215156 75.7549944,25.5542009 76.23,25.42 C76.6148149,25.314296 76.9844938,25.159703 77.33,24.96 C77.5996321,24.8011798 77.8511216,24.613401 78.08,24.4 C78.237458,24.2605075 78.3814272,24.1064939 78.51,23.94 L78.65,23.75 L78.65,23.96 C78.65,24.1 78.65,24.27 78.65,24.47 L78.65,25.32 L82.87,25.32 L82.87,7.66 L78.39,7.66 Z" id="Fill-5" fill="#FFFFFF"></path>
                        <path d="M59.21,18 L60.28,14.54 C60.3466667,14.3133333 60.4166667,14.0633333 60.49,13.79 C60.55,13.51 60.62,13.24 60.69,12.97 L60.86,12.22 C60.86,12 60.96,11.82 60.98,11.68 L60.98,11.47 L60.98,11.68 L61.1,12.22 L61.28,12.97 C61.34,13.24 61.41,13.51 61.48,13.79 C61.55,14.07 61.62,14.31 61.69,14.54 L62.69,18 L59.21,18 Z M63.45,7.4 L58.66,7.4 L52.34,25.27 L57,25.27 L58.11,21.53 L63.91,21.53 L65.06,25.27 L69.74,25.27 L63.45,7.4 Z" id="Fill-7" fill="#FFFFFF"></path>
                        <path d="M134.42,14.66 C134.678254,15.3918692 134.803559,16.1640208 134.79,16.94 L134.79,25.27 L130.29,25.27 L130.29,17.74 C130.333064,17.2756916 130.201103,16.8120456 129.92,16.44 C129.626996,16.1496523 129.22086,16.0032971 128.81,16.04 C128.388628,16.0322608 127.970103,16.1105216 127.58,16.27 C127.240172,16.4153933 126.93888,16.637939 126.7,16.92 C126.454368,17.215069 126.267656,17.5545441 126.15,17.92 C126.05995,18.1836833 125.99303,18.4547069 125.95,18.73 C125.914061,19.0253767 125.894032,19.3224723 125.89,19.62 L125.89,25.31 L121.39,25.31 L121.39,12.42 L125.71,12.42 L125.71,13.54 C125.71,13.76 125.71,13.95 125.71,14.1 L125.71,14.34 L125.76,14.34 C125.937122,14.0662986 126.13789,13.8086462 126.36,13.57 C126.622671,13.2976644 126.918287,13.0591566 127.24,12.86 C127.615799,12.6261626 128.023315,12.4476639 128.45,12.33 C128.964518,12.1877474 129.496187,12.1170826 130.03,12.12 C130.668696,12.1128169 131.305137,12.1970023 131.92,12.37 C132.482156,12.5221085 133.004318,12.7951344 133.45,13.17 C133.897505,13.5797113 134.240398,14.0906224 134.45,14.66" id="Fill-9" fill="#FFFFFF"></path>
                        <path d="M105.71,12.81 C105.229172,12.595329 104.726129,12.4343554 104.21,12.33 C103.553605,12.1834565 102.882518,12.1129923 102.21,12.12 C101.323505,12.1179663 100.441264,12.2425576 99.59,12.49 C98.8480278,12.7109324 98.145922,13.0484832 97.51,13.49 C96.9295105,13.9097615 96.4197615,14.4195105 96,15 C95.1858379,16.1178353 94.7512611,17.4671264 94.76,18.85 C94.7613407,19.5481847 94.8658013,20.2423425 95.07,20.91 C95.5064472,22.2577802 96.3700002,23.4267361 97.53,24.24 C98.1657501,24.6818119 98.8679047,25.0193863 99.61,25.24 C100.458366,25.4839226 101.337279,25.6051521 102.22,25.6 C102.892745,25.6007385 103.563502,25.5269553 104.22,25.38 C104.769881,25.257884 105.305958,25.0803085 105.82,24.85 C106.228246,24.6758074 106.61985,24.4649435 106.99,24.22 C107.233247,24.0604266 107.466977,23.8867983 107.69,23.7 L107.93,23.48 L106.29,20.48 L106.09,20.64 C105.96,20.74 105.78,20.87 105.54,21.02 C105.280095,21.1961292 105.005788,21.3500086 104.72,21.48 C104.40097,21.6415088 104.065778,21.7688815 103.72,21.86 C103.362684,21.9660428 102.992658,22.0232287 102.62,22.03 C102.112041,22.0353987 101.608358,21.9367041 101.14,21.74 C100.358292,21.4124001 99.7516369,20.7694188 99.47,19.97 C99.3311834,19.6059529 99.260016,19.2196156 99.26,18.83 C99.2623201,18.4479941 99.3299621,18.0691992 99.46,17.71 C99.5889348,17.3388735 99.7932107,16.9984137 100.06,16.71 C100.337358,16.4054636 100.678924,16.1663674 101.06,16.01 C101.505105,15.8312955 101.980361,15.7396391 102.46,15.74 C102.891051,15.7415682 103.31933,15.8090137 103.73,15.94 C104.07751,16.0478148 104.412694,16.1919437 104.73,16.37 C104.954845,16.495408 105.168911,16.6392335 105.37,16.8 L105.61,16.99 L107.5,14.1 L107.3,13.89 C107.10355,13.7172217 106.896478,13.5569084 106.68,13.41 C106.344317,13.188862 105.989578,12.9981062 105.62,12.84" id="Fill-11" fill="#FFFFFF"></path>
                        <path d="M91.87,18 C92.3070392,18.2251832 92.7164483,18.5003598 93.09,18.82 C93.4702193,19.1475488 93.7798306,19.5490228 94,20 C94.2314721,20.4803134 94.3511331,21.0068217 94.35,21.54 C94.3512949,22.086261 94.2209498,22.6247919 93.97,23.11 C93.7129452,23.6137223 93.3475304,24.0542691 92.9,24.4 C92.384703,24.7950956 91.8019037,25.093272 91.18,25.28 C90.4276312,25.5059024 89.6455187,25.6171512 88.86,25.61 C88.2380022,25.6088266 87.6178775,25.5417861 87.01,25.41 C86.5030934,25.2998142 86.0076026,25.1424624 85.53,24.94 C85.148133,24.7778487 84.7773341,24.590779 84.42,24.38 C84.1795364,24.2392749 83.9489966,24.0822406 83.73,23.91 L83.5,23.71 L85.43,20.82 L85.69,21.02 C85.9188424,21.1871544 86.1594696,21.3375463 86.41,21.47 C86.7550177,21.6510455 87.116692,21.7983943 87.49,21.91 C87.9243523,22.0436059 88.375599,22.1143237 88.83,22.12 C89.0486747,22.1225005 89.2668717,22.0990024 89.48,22.05 C89.6520624,22.022871 89.8159848,21.9579851 89.96,21.86 C90.0817989,21.7897037 90.1577358,21.6606109 90.16,21.52 C90.16,21.36 90.04,21.21 89.81,21.08 C89.5220582,20.9210392 89.2209423,20.7872099 88.91,20.68 C88.55,20.54 88.14,20.4 87.69,20.22 C87.2341315,20.0529013 86.7898265,19.8558036 86.36,19.63 C85.920926,19.4002579 85.5112792,19.118206 85.14,18.79 C84.3115316,18.1045962 83.8464236,17.0747143 83.88,16 C83.8798899,15.4254481 84.0279948,14.8605827 84.31,14.36 C84.6022582,13.8670181 85.0022378,13.4465268 85.48,13.13 C86.0153302,12.7734583 86.6069613,12.5097599 87.23,12.35 C87.9348916,12.1648742 88.661228,12.0740822 89.39,12.08 C89.9564552,12.0843742 90.5216296,12.1345376 91.08,12.23 C91.5300418,12.3142016 91.9717606,12.4380167 92.4,12.6 C92.7241718,12.7183467 93.0384836,12.8621277 93.34,13.03 C93.5392953,13.1383857 93.7298688,13.2620913 93.91,13.4 L94.1,13.55 L92.57,16.62 L92.33,16.46 C92.1216961,16.3254849 91.904534,16.2052105 91.68,16.1 C91.3604035,15.9448126 91.0251768,15.824131 90.68,15.74 C90.259022,15.6284882 89.8254946,15.5713567 89.39,15.57 C89.1746241,15.5674332 88.9597289,15.5909374 88.75,15.64 C88.5733389,15.6676648 88.405563,15.7361448 88.26,15.84 C88.1416285,15.9217284 88.0706802,16.0561568 88.07,16.2 C88.07,16.33 88.19,16.46 88.42,16.58 C88.7054119,16.7261379 89.003251,16.8466122 89.31,16.94 L90.53,17.37 C90.9873957,17.5413374 91.4347717,17.7383164 91.87,17.96" id="Fill-13" fill="#FFFFFF"></path>
                        <path d="M211.31,19.58 C211.304771,20.0638096 211.220319,20.543495 211.06,21 C210.895601,21.4659922 210.655738,21.9017994 210.35,22.29 C210.050344,22.6780235 209.672083,22.9983529 209.24,23.23 C208.798649,23.4722058 208.303442,23.5994465 207.8,23.6 C207.32623,23.6077761 206.857164,23.5050609 206.43,23.3 C206.087626,23.1340384 205.799695,22.8738598 205.6,22.55 C205.415126,22.2493493 205.318131,21.9029387 205.32,21.55 C205.316898,21.1445219 205.450797,20.7498746 205.7,20.43 C205.970092,20.1173114 206.313751,19.8767499 206.7,19.73 C207.116463,19.5514818 207.552954,19.4238921 208,19.35 C208.466255,19.2676667 208.937152,19.2142315 209.41,19.19 L210.7,19.19 L211.35,19.19 L211.31,19.58 Z M213.2,14.58 C212.797757,13.8530186 212.17912,13.2693331 211.43,12.91 C210.543051,12.5049035 209.574614,12.3098475 208.6,12.34 C208.039805,12.3361783 207.480548,12.386411 206.93,12.49 C206.466954,12.5789058 206.012066,12.7060069 205.57,12.87 C205.226047,12.9912358 204.891759,13.1383223 204.57,13.31 C204.349981,13.4213891 204.136319,13.5449127 203.93,13.68 L203.71,13.84 L204.71,15.61 C204.799684,15.5414492 204.893166,15.478015 204.99,15.42 C205.242514,15.2605339 205.506581,15.1201437 205.78,15 C206.153709,14.8265141 206.541849,14.6859807 206.94,14.58 C207.405783,14.4506669 207.886607,14.3834188 208.37,14.38 C208.878682,14.3711216 209.384388,14.4593656 209.86,14.64 C210.280788,14.8157801 210.632147,15.1249759 210.86,15.52 C211.135188,16.0176522 211.266744,16.5819586 211.24,17.15 L211.24,17.38 L210.67,17.38 C210.29,17.38 209.84,17.38 209.31,17.38 C208.78,17.38 208.22,17.46 207.63,17.55 C207.03418,17.6392583 206.445871,17.7729647 205.87,17.95 C205.314151,18.1297892 204.785819,18.3855424 204.3,18.71 C203.837447,19.0235918 203.451269,19.4371102 203.17,19.92 C202.878148,20.4637061 202.730128,21.0729937 202.74,21.69 C202.729299,22.2660528 202.859762,22.8359692 203.12,23.35 C203.356299,23.8217867 203.698559,24.2324984 204.12,24.55 C204.552133,24.8804031 205.039784,25.1310015 205.56,25.29 C206.0952,25.4507302 206.651189,25.5316013 207.21,25.53 C207.770551,25.5346028 208.328027,25.4467582 208.86,25.27 C209.286602,25.1267262 209.688134,24.9175248 210.05,24.65 C210.348109,24.4396615 210.617105,24.1908397 210.85,23.91 C211.013379,23.7157172 211.16054,23.5083546 211.29,23.29 C211.38,23.13 211.42,23.04 211.42,23.04 L211.42,23.32 C211.42,23.5 211.42,23.74 211.42,24.03 L211.42,25.23 L213.76,25.23 L213.76,17.23 C213.790622,16.2938279 213.584237,15.3650923 213.16,14.53 L213.2,14.58 Z" id="Fill-15" fill="#FFFFFF"></path>
                        <path d="M194.43,21 C194.254007,21.5268827 193.963753,22.0083624 193.58,22.41 C193.24179,22.7664672 192.828457,23.0431613 192.37,23.22 C191.916352,23.3920697 191.435185,23.4801708 190.95,23.48 C190.26457,23.4842187 189.593159,23.2859261 189.02,22.91 C188.444874,22.5240351 187.99071,21.9831985 187.71,21.35 C187.373567,20.5991626 187.209553,19.7825121 187.23,18.96 C187.219163,18.3075322 187.320642,17.6580623 187.53,17.04 C187.709944,16.5185535 187.988315,16.0364976 188.35,15.62 C188.685349,15.2455492 189.098259,14.9486634 189.56,14.75 C190.021072,14.5393084 190.523112,14.4334359 191.03,14.44 C191.5969,14.4360716 192.15627,14.5699086 192.66,14.83 C193.118697,15.0692885 193.515739,15.4115657 193.82,15.83 C194.133809,16.2628788 194.370613,16.7466349 194.52,17.26 C194.671272,17.7969966 194.748651,18.352105 194.75,18.91 C194.760537,19.6130883 194.652352,20.3129139 194.43,20.98 L194.43,21 Z M194.67,7.66 L194.67,13.5 C194.67,13.74 194.67,13.94 194.67,14.1 L194.67,14.34 L194.62,14.34 L194.49,14.14 C194.365051,13.9612491 194.224501,13.7939274 194.07,13.64 C193.833915,13.417836 193.575932,13.2201601 193.3,13.05 C192.94092,12.8347633 192.553968,12.6698879 192.15,12.56 C191.6335,12.4108034 191.097524,12.340014 190.56,12.35 C189.736217,12.340237 188.919249,12.5002266 188.16,12.82 C187.445298,13.1235466 186.804161,13.5771166 186.28,14.15 C185.731351,14.7513906 185.312629,15.4594728 185.05,16.23 C184.748496,17.1084591 184.596388,18.031247 184.6,18.96 C184.595883,19.8725367 184.734214,20.7801251 185.01,21.65 C185.253796,22.4138793 185.648232,23.1211432 186.17,23.73 C186.672741,24.3047408 187.298125,24.7592547 188,25.06 C188.760381,25.3885299 189.581771,25.5521264 190.41,25.54 C190.985185,25.5410833 191.557595,25.4602725 192.11,25.3 C192.546564,25.1643317 192.960946,24.9655628 193.34,24.71 C193.6368,24.513457 193.908771,24.2817786 194.15,24.02 C194.314263,23.8381665 194.464683,23.6442915 194.6,23.44 L194.73,23.2 L194.73,23.43 C194.73,23.59 194.73,23.79 194.73,24.04 L194.73,25.24 L197.12,25.24 L197.12,7.63 L194.67,7.66 Z" id="Fill-17" fill="#FFFFFF"></path>
                        <path d="M173.91,17.49 C174.008013,16.8530963 174.258451,16.2493005 174.64,15.73 C174.993854,15.2574952 175.461778,14.8824675 176,14.64 C176.555111,14.3864758 177.159816,14.2600685 177.77,14.27 C178.307462,14.2586749 178.839554,14.3788246 179.32,14.62 C179.793834,14.8566332 180.189577,15.2246042 180.46,15.68 C180.770487,16.2330349 180.935636,16.8557835 180.94,17.49 L173.91,17.49 Z M183.14,16 C182.909367,15.3052463 182.538353,14.665331 182.05,14.12 C181.557634,13.5705232 180.949767,13.13682 180.27,12.85 C179.490605,12.5282966 178.652979,12.3716675 177.81,12.39 C176.918,12.3789283 176.032104,12.5384574 175.2,12.86 C173.61781,13.4620934 172.359596,14.6985513 171.73,16.27 C171.387367,17.1388204 171.217528,18.0661419 171.23,19 C171.221147,19.8955922 171.394669,20.783616 171.74,21.61 C172.063574,22.3974412 172.547112,23.1091262 173.16,23.7 C173.795198,24.3103143 174.546808,24.7864475 175.37,25.1 C176.273259,25.4450527 177.233112,25.6180297 178.2,25.61 C178.785265,25.6116457 179.368883,25.5479173 179.94,25.42 C180.425679,25.3166305 180.900965,25.1693588 181.36,24.98 C181.702913,24.8220322 182.036763,24.6450916 182.36,24.45 C182.588248,24.3124691 182.808594,24.1622327 183.02,24 L183.25,23.81 L182.25,22.04 L182.06,22.19 C181.892349,22.325769 181.715233,22.4494156 181.53,22.56 C181.264238,22.7234672 180.986824,22.8671874 180.7,22.99 C180.352124,23.1462324 179.990597,23.270089 179.62,23.36 C178.644965,23.5923356 177.625024,23.5543039 176.67,23.25 C176.154263,23.0829789 175.675537,22.8181519 175.26,22.47 C174.837156,22.1095528 174.496211,21.6629152 174.26,21.16 C173.999261,20.5907364 173.853149,19.9757078 173.83,19.35 L183.43,19.35 L183.43,19.15 C183.43,19.02 183.43,18.88 183.43,18.71 C183.438524,18.5734662 183.438524,18.4365338 183.43,18.3 C183.433231,17.5182616 183.308239,16.7412845 183.06,16 L183.14,16 Z" id="Fill-19" fill="#FFFFFF"></path>
                        <polygon id="Fill-21" fill="#FFFFFF" points="201.78 25.24 199.25 25.24 199.25 12.62 201.78 12.62"></polygon>
                        <polygon id="Fill-23" fill="#FFFFFF" points="201.78 10.1 199.23 10.1 199.23 7.63 201.78 7.63"></polygon>
                        <path d="M168.65,7.65 L170.13,25.27 L167.58,25.27 L166.67,14.17 C166.67,13.89 166.67,13.61 166.67,13.31 L166.67,11.57 L166.58,11.84 L166.34,12.5 C166.25,12.77 166.14,13.06 166.02,13.35 C165.9,13.64 165.8,13.92 165.68,14.17 L162.02,22.1 L159.73,22.1 L156,14.17 C155.89,13.92 155.78,13.65 155.67,13.35 C155.56,13.05 155.45,12.77 155.35,12.49 C155.25,12.21 155.17,11.98 155.1,11.8 L155.01,11.52 L155,11.52 L155,12.44 C155,12.71 155,13 155,13.3 C155,13.6 155,13.89 154.95,14.17 L154,25.27 L151.42,25.27 L152.91,7.65 L155.61,7.65 L159.82,17.19 C159.93,17.44 160.04,17.69 160.14,17.97 C160.24,18.25 160.35,18.5 160.44,18.74 C160.53,18.98 160.6,19.17 160.65,19.32 C160.7,19.47 160.74,19.55 160.74,19.56 C160.74,19.56 160.74,19.47 160.82,19.32 L161.04,18.74 C161.13,18.5 161.22,18.24 161.33,17.97 C161.44,17.7 161.54,17.44 161.65,17.19 L165.86,7.65 L168.65,7.65 Z" id="Fill-24" fill="#FFFFFF"></path>
                        <path d="M36.15,25.25 L35.35,23.25 C41.72,17.25 38.04,5.1 28.35,5.51 L27.9,4.38 C39.58,3.33 46.14,16.53 36.18,25.26 L36.15,25.25 Z M44.08,8.92 C38.93,0.76 28.16,0.92 20.08,3.46 C9.84,6.7 -2.18,16.86 2.68,28.83 L1.68,30.55 C-4.51,15 12.43,2.82 26.48,0.85 C33.61,-0.24 42.24,0.99 46.56,7.46 C52.13,15.81 46.22,26.76 38.65,31.57 L37.74,29.27 C43.79,24.56 48.6,16.07 44.08,8.92 Z M33.63,18.92 C36.25,15.29 34.14,9.35 29.56,8.65 L31,12.19 C31.8798786,12.8338448 32.3021726,13.9325911 32.08,15 L33.63,18.92 Z" id="Fill-25" fill="#0E9ED0"></path>
                        <path d="M19.46,22 L21,17 C21.1,16.6733333 21.2,16.3133333 21.3,15.92 L21.6,14.74 C21.69,14.34 21.77,13.98 21.85,13.65 C21.93,13.32 22,13 22,12.84 L22.07,12.54 L22.15,12.54 L22.22,12.84 C22.22,13.04 22.32,13.31 22.39,13.63 L22.65,14.72 C22.74,15.11 22.84,15.5 22.94,15.9 C23.04,16.3 23.14,16.65 23.24,16.98 L24.75,21.98 L19.46,22 Z M25.61,6.63 L18.67,6.63 L9.51,32.5 L16.3,32.5 L17.92,27.07 L26.33,27.07 L28,32.5 L34.78,32.5 L25.61,6.63 Z" id="Fill-26" fill="#FFFFFF"></path>
                    </g>
                </g>
            </g>
        </g>
    </g>
</svg>