<?xml version="1.0" encoding="UTF-8" standalone="no"?>
<svg width="132px" height="41px" viewBox="0 0 132 41" version="1.1" xmlns="http://www.w3.org/2000/svg" xmlns:xlink="http://www.w3.org/1999/xlink">
    <!-- Generator: Sketch 50.2 (55047) - http://www.bohemiancoding.com/sketch -->
    <title>smorestv</title>
    <desc>Created with Sketch.</desc>
    <defs></defs>
    <g id="Page-1" stroke="none" stroke-width="1" fill="none" fill-rule="evenodd">
        <g id="smorestv" fill="#FFFFFF" fill-rule="nonzero">
            <path d="M116.5,35.84 C116.04275,35.8417455 115.608385,36.0402607 115.307825,36.3848525 C115.007264,36.7294443 114.869605,37.1867533 114.93,37.64 C114.910166,38.0506866 115.063239,38.4509092 115.35207,38.743541 C115.640902,39.0361727 116.039089,39.1944639 116.45,39.18 C117.360801,39.1857149 118.108202,38.460558 118.13,37.55 C118.125947,36.6380008 117.410759,35.8877124 116.5,35.84 Z" id="Shape"></path>
            <path d="M122,32.91 C122.651696,32.91 123.18,32.381696 123.18,31.73 C123.18,31.078304 122.651696,30.55 122,30.55 L121.62,30.55 L121.62,29.13 C121.620954,28.6003227 121.208724,28.1617798 120.68,28.13 L119.68,28.13 C119.151276,28.1617798 118.739046,28.6003227 118.74,29.13 L118.74,30.55 L117.6,30.55 L117.6,32.91 L118.74,32.91 L118.74,35.31 C118.74,37.48 119.91,39.02 121.79,39.31 L122,39.31 C122.518965,39.3121057 122.953297,38.9168638 123,38.4 L123.07,37.8 C123.130448,37.2995697 122.808986,36.8323794 122.32,36.71 C122.01,36.62 121.6,36.37 121.6,35.33 L121.6,32.91 L122,32.91 Z" id="Shape"></path>
            <path d="M131.27,31.18 C131.126559,30.9583362 130.892104,30.8118019 130.63,30.78 L129.83,30.67 C129.373589,30.6149863 128.946622,30.9053239 128.83,31.35 L127.83,35.35 L126.69,31.35 C126.573803,30.9500057 126.195724,30.6841041 125.78,30.71 L124.83,30.71 C124.556984,30.7255879 124.30629,30.8658204 124.150127,31.0903055 C123.993963,31.3147906 123.949668,31.5986049 124.03,31.86 L126.03,38.36 C126.170613,38.8224554 126.596641,39.1389337 127.08,39.14 L128.59,39.14 C129.078892,39.1363068 129.506676,38.8103766 129.64,38.34 L131.45,31.89 C131.4921,31.6385681 131.426803,31.3810058 131.27,31.18 Z" id="Shape"></path>
            <path d="M22.56,14.52 L18.38,14.52 C18.8960341,13.3880291 18.9249533,12.0938924 18.46,10.94 C17.75,8.71 12.19,7.5 12.19,7.5 C12.19,7.5 14.19,10.5 12.84,11.25 C7,14.56 8.11,0.58 8.11,0.58 C5.11,2.08 1.77,7 3.02,10.17 C4.16,13.05 4.86,16.67 3.86,17.17 C2.86,17.67 1.52,15.33 1.52,15.33 C0.655254026,17.3803001 0.368215893,19.6281891 0.69,21.83 C1.11083997,23.9371782 2.38979723,25.7740941 4.22,26.9 L4.22,33.43 C4.2254899,37.2235416 7.29647038,40.2989922 11.09,40.31 L22.56,40.31 C26.3558132,40.3044828 29.430004,37.2258173 29.43,33.43 L29.43,21.43 C29.4379736,19.6018499 28.7180129,17.8456968 27.4290611,16.5492402 C26.1401094,15.2527836 24.3881656,14.5226398 22.56,14.52 Z M7.37,21.39 C7.37549459,19.337781 9.03778097,17.6754946 11.09,17.67 L22.56,17.67 C24.612219,17.6754946 26.2745054,19.337781 26.28,21.39 L26.28,33.39 C26.2800074,35.4461232 24.6161158,37.1144876 22.56,37.12 L11.09,37.12 C9.0338842,37.1144876 7.36999261,35.4461232 7.37,33.39 L7.37,21.39 Z" id="Shape"></path>
            <path d="M16.61,23.92 C22.98,23.99 24.75,20.92 24.75,20.92 C19.4445811,22.626394 13.7418829,22.6543313 8.42,21 C8.42,21 10.15,23.84 16.61,23.92 Z" id="Shape"></path>
            <path d="M34.86,38.47 C34.3998512,38.1989789 33.9986306,37.8385604 33.68,37.41 C33.0042649,36.4322484 32.5472194,35.3203317 32.34,34.15 C32.3148616,33.9039738 32.3148616,33.6560262 32.34,33.41 C32.3318268,33.2614249 32.3831209,33.1157058 32.482559,33.0050106 C32.581997,32.8943154 32.7214021,32.8277468 32.87,32.82 C33.87,32.66 34.58,32.57 34.93,32.56 C35.1662519,32.5160686 35.4103157,32.566317 35.61,32.7 C35.7836844,32.8832664 35.901613,33.1121865 35.95,33.36 C35.95,33.43 35.95,33.57 36.06,33.78 L36.18,34.19 C36.2190824,34.3475439 36.27965,34.4989631 36.36,34.64 C36.6641258,35.3976722 37.4740482,35.8217154 38.27,35.64 C38.6716631,35.5469644 39.0265439,35.3127432 39.27,34.98 C39.5386125,34.6418269 39.6833071,34.2218597 39.68,33.79 C39.7000585,32.9237452 39.3806582,32.0839736 38.79,31.45 C38.66,31.31 38.14,30.78 37.24,29.88 C35.56,28.21 34.69,27.33 34.63,27.26 C33.1903675,25.7710489 32.4616419,23.7342608 32.63,21.67 C32.6913703,20.5356081 33.1115855,19.4500522 33.83,18.57 C34.4588371,17.7737239 35.3409092,17.2162544 36.33,16.99 C38.2830268,16.325486 40.4440748,16.8385406 41.89,18.31 C42.7082547,19.1895753 43.2020993,20.3218903 43.29,21.52 C43.3260889,21.6606513 43.3040115,21.80991 43.2287503,21.9340911 C43.153489,22.0582721 43.0313868,22.1469098 42.89,22.18 C42.1109534,22.4392264 41.3000987,22.5906308 40.48,22.63 C40.136686,22.6569365 39.819143,22.4466158 39.71,22.12 L39.56,21.72 C39.5,21.54 39.45,21.41 39.41,21.32 C39.05,20.49 38.51,20.15 37.8,20.27 C37.0840517,20.4001089 36.5627308,21.0223305 36.56,21.75 C36.4172685,22.9932709 36.8350422,24.2355981 37.7,25.14 C38.0907598,25.6352583 38.5258972,26.0938263 39,26.51 C39.8764737,27.192469 40.6836933,27.959495 41.41,28.8 C42.9373155,30.4499377 43.6229385,32.7095448 43.27,34.93 C43.1369693,35.9359919 42.7009955,36.8776955 42.02,37.63 C41.4162056,38.3911997 40.5559968,38.906614 39.6,39.08 L37.89,39.18 C36.8301881,39.2716815 35.7687566,39.0229632 34.86,38.47 Z" id="Shape"></path>
            <path d="M45.89,27.88 L45.89,18.56 C45.8702026,18.1902648 45.8702026,17.8197352 45.89,17.45 C45.886832,17.2793132 45.9553347,17.1151093 46.0788663,16.9972792 C46.2023979,16.879449 46.3696532,16.8187761 46.54,16.83 C47.61,16.83 48.9,16.83 50.39,16.83 C50.7399071,16.8129195 51.0385214,17.0803353 51.06,17.43 C51.21,18.06 51.36,18.79 51.53,19.62 L52.34,23.76 C52.68,25.49 52.95,26.87 53.16,27.89 C53.2194859,28.1732963 53.3031248,28.4509776 53.41,28.72 C53.4457656,28.887426 53.5890737,29.0102615 53.76,29.02 C53.95,29.02 54.09,28.91 54.21,28.66 C54.2372496,28.5819889 54.2573327,28.5016567 54.27,28.42 C54.42,27.57 54.67,26.21 55.02,24.33 C55.37,22.45 55.61,21.21 55.79,20.25 C55.85,19.9 55.94,19.46 56.05,18.91 C56.19,18.2 56.27,17.76 56.3,17.57 C56.3421095,17.1313383 56.7196872,16.8020553 57.16,16.82 C58.59,16.82 59.79,16.82 60.75,16.82 C61.17,16.82 61.41,17.07 61.45,17.54 C61.45,17.7333333 61.45,18.0666667 61.45,18.54 L61.45,37 C61.4523083,37.3772671 61.4356205,37.7544112 61.4,38.13 C61.4009796,38.4813526 61.1303744,38.7737809 60.78,38.8 C59.9603448,38.9100603 59.1296552,38.9100603 58.31,38.8 C58.0014996,38.7735328 57.7681897,38.5094084 57.78,38.2 C57.7441502,37.8679029 57.7274559,37.5340168 57.73,37.2 C57.73,36.67 57.73,35.99 57.73,35.2 L57.73,33.2 C57.7532731,32.5784474 57.6477287,31.9587995 57.42,31.38 C57.3828558,31.3051559 57.3030991,31.2612897 57.22,31.27 C57.1386998,31.2564223 57.057918,31.2968132 57.02,31.37 C56.8369708,31.6462092 56.7205808,31.9611468 56.68,32.29 C56.6,32.68 56.49,33.23 56.34,33.94 C56.19,34.65 56.08,35.24 56,35.57 C55.78,36.57 55.6,37.42 55.47,37.99 C55.432853,38.2590896 55.3142011,38.5103526 55.13,38.71 C54.9081404,38.8657247 54.6407387,38.9431304 54.37,38.93 C53.9136772,38.9550642 53.4563228,38.9550642 53,38.93 C52.771002,38.9301818 52.546284,38.8679522 52.35,38.75 C52.1941611,38.5844234 52.0929311,38.374982 52.06,38.15 C51.96,37.73 51.83,37.15 51.68,36.52 L51.29,34.88 C50.95,33.41 50.69,32.29 50.49,31.51 C50.41165,31.2343134 50.3078712,30.9664972 50.18,30.71 C50.1628768,30.6463879 50.1181488,30.5937967 50.058111,30.5666828 C49.9980732,30.539569 49.9290445,30.5407862 49.87,30.57 C49.7909585,30.591285 49.7251894,30.6460925 49.69,30.72 C49.573014,31.0742484 49.5254785,31.4477416 49.55,31.82 L49.55,34.48 C49.55,35.62 49.55,36.48 49.55,37.16 C49.55,37.6 49.55,37.97 49.55,38.27 C49.5290677,38.6204991 49.2410933,38.8953838 48.89,38.9 C48.1059164,38.9901563 47.3140836,38.9901563 46.53,38.9 C46.1812001,38.8788223 45.9093577,38.5894417 45.91,38.24 C45.91,38.0066667 45.91,37.6366667 45.91,37.13 L45.89,27.88 Z" id="Shape"></path>
            <path d="M75.14,22.59 L75.14,33 C75.0820229,33.8222909 74.9751674,34.6404034 74.82,35.45 C74.752383,35.7306751 74.644605,36.0001201 74.5,36.25 C73.5246068,38.0940937 71.5852164,39.2228189 69.5,39.16 C67.4939048,39.1820081 65.6569067,38.0392471 64.79,36.23 C64.3973044,35.4494155 64.2048645,34.5834359 64.23,33.71 L64.23,22 C64.2245905,20.0575756 65.2279139,18.2515935 66.88,17.23 C67.21386,16.9797704 67.6002808,16.8087877 68.01,16.73 C69.1145781,16.5325408 70.2454219,16.5325408 71.35,16.73 C72.1345041,16.9147747 72.8494829,17.3208549 73.41,17.9 C74.0182629,18.4370026 74.4707597,19.1278375 74.72,19.9 C74.9916297,20.7711087 75.1331558,21.6775493 75.14,22.59 Z M71,34.33 C71.1529776,33.942269 71.2211725,33.5262802 71.2,33.11 L71.2,22.46 C71.1963238,22.0884941 71.1459282,21.7189261 71.05,21.36 C70.8502451,20.6528565 70.1409006,20.2176759 69.42,20.36 C68.681817,20.3417652 68.05821,20.9038898 68,21.64 C67.9748639,21.9728595 67.9748639,22.3071405 68,22.64 L68,32.9 C67.9752026,33.3565552 68.0327874,33.8138461 68.17,34.25 C68.4027697,34.8308428 68.9582332,35.2180006 69.5837396,35.2353758 C70.2092459,35.252751 70.7853451,34.8970254 71.05,34.33 L71,34.33 Z" id="Shape"></path>
            <path d="M77.58,27.82 L77.58,18.37 C77.5202085,17.8929046 77.5928608,17.4085558 77.79,16.97 C78.2167388,16.7685264 78.6908632,16.6889288 79.16,16.74 L80.84,16.74 L82.51,16.74 C83.4261704,16.7363119 84.3383495,16.8608529 85.22,17.11 C86.0470238,17.3230279 86.7855407,17.7920386 87.33,18.45 C87.8803896,19.1098969 88.1999548,19.9316359 88.24,20.79 C88.24,21.62 88.24,23.48 88.24,26.37 C88.1946159,27.2050009 87.8707016,28.0007036 87.32,28.63 C86.8743428,29.1956529 86.7462983,29.9488561 86.98,30.63 C87.25,31.63 87.82,33.81 88.67,37.12 C88.7719014,37.4775475 88.8487543,37.8417637 88.9,38.21 C88.9238376,38.3563353 88.8917063,38.5062813 88.81,38.63 C88.722255,38.7495586 88.5876362,38.8259639 88.44,38.84 C87.492669,38.9407087 86.537331,38.9407087 85.59,38.84 C85.2408572,38.8082564 84.9530588,38.5528859 84.88,38.21 C84.8,37.94 84.7,37.58 84.59,37.13 C84.48,36.68 84.28,35.81 83.99,34.6 C83.7,33.39 83.53,32.68 83.37,32.06 C83.3195342,31.8179887 83.2492986,31.5805256 83.16,31.35 C83.0188481,30.9318802 82.5953537,30.6777835 82.16,30.75 C81.721999,30.7849507 81.3788097,31.1410095 81.36,31.58 C81.309228,31.9478671 81.2825046,32.3186542 81.28,32.69 L81.28,37.16 C81.28,37.62 81.28,37.96 81.28,38.16 C81.2801781,38.3483178 81.2033783,38.5285262 81.067415,38.6588244 C80.9314517,38.7891225 80.7481398,38.8581878 80.56,38.85 C79.81,38.85 79.07,38.85 78.33,38.85 C78.1382359,38.8557461 77.952737,38.7813934 77.8180304,38.6447895 C77.6833238,38.5081856 77.6115726,38.321665 77.62,38.13 C77.62,37.91 77.62,37.54 77.62,37.02 L77.58,27.82 Z M81.34,23.76 C81.34,25.18 81.34,25.97 81.34,26.12 C81.3027004,26.6082105 81.6464131,27.0432898 82.13,27.12 C82.672294,27.2829508 83.2582464,27.208389 83.7424485,26.9148177 C84.2266506,26.6212463 84.5637162,26.136183 84.67,25.58 C84.7006344,25.4586281 84.7207093,25.3348331 84.73,25.21 C84.73,23.5633333 84.73,22.6133333 84.73,22.36 C84.7279991,21.9459443 84.5871517,21.5445291 84.33,21.22 C84.0291541,20.932764 83.6497847,20.7413391 83.24,20.67 L82.74,20.57 C81.86,20.4633333 81.39,20.8333333 81.33,21.68 C81.33,21.79 81.33,22.49 81.33,23.79 L81.34,23.76 Z" id="Shape"></path>
            <path d="M91.27,27.85 L91.27,18.4 C91.27,17.61 91.34,17.15 91.49,17 C91.64,16.85 92.09,16.77 92.86,16.77 L99.68,16.77 C100.39,16.77 100.81,16.84 100.96,16.99 C101.11,17.14 101.19,17.55 101.19,18.23 C101.202101,18.6839345 101.185401,19.1381795 101.14,19.59 C101.140021,19.7588335 101.072276,19.9206108 100.951956,20.0390504 C100.831636,20.15749 100.668812,20.2226799 100.5,20.22 C100.31,20.22 99.98,20.22 99.5,20.27 C97.33,20.27 96.3,20.27 96.4,20.27 C96.0179017,20.2435966 95.6388064,20.353428 95.33,20.58 C95.1011237,20.8616042 94.9836839,21.2174823 95,21.58 C95,22.65 95,23.68 95,24.69 C94.9781324,25.0221518 95.0816111,25.3504291 95.29,25.61 C95.5588546,25.8174277 95.8904963,25.9267989 96.23,25.92 L97.34,25.92 L98.46,25.92 C98.7307387,25.9068696 98.9981404,25.9842753 99.22,26.14 C99.3696361,26.3680145 99.4431561,26.6375876 99.43,26.91 C99.43,27.57 99.43,28.23 99.43,28.91 C99.4421727,29.1008997 99.3709231,29.2876902 99.2347067,29.4219882 C99.0984902,29.5562861 98.9107078,29.6248792 98.72,29.61 C98.24,29.61 97.54,29.61 96.61,29.61 C96.209237,29.5736194 95.8059222,29.6425621 95.44,29.81 C95.107126,30.1923832 94.9477959,30.6957215 95,31.2 C94.96,31.96 94.96,32.83 95,33.81 C94.9836839,34.1725177 95.1011237,34.5283958 95.33,34.81 C95.6332866,35.0399759 96.0105894,35.1503192 96.39,35.12 L99.49,35.12 C99.96,35.12 100.29,35.12 100.49,35.17 C100.834149,35.1643646 101.119119,35.4359772 101.13,35.78 C101.210023,36.5646316 101.210023,37.3553684 101.13,38.14 C101.119868,38.4908622 100.840663,38.7744295 100.49,38.79 C100.202014,38.8327061 99.9111224,38.8527675 99.62,38.85 L92.78,38.85 C92.6169192,38.8628457 92.4530808,38.8628457 92.29,38.85 C92.0203443,38.8551 91.7565992,38.7707016 91.54,38.61 C91.3660136,38.4072078 91.2733789,38.1471181 91.28,37.88 C91.28,37.72 91.28,37.35 91.28,36.76 L91.27,27.85 Z" id="Shape"></path>
            <path d="M104.9,38.47 C104.43625,38.2000613 104.031553,37.8395747 103.71,37.41 C103.038613,36.4298937 102.581967,35.3189478 102.37,34.15 C102.344931,33.9039703 102.344931,33.6560297 102.37,33.41 C102.359038,33.2624097 102.408019,33.1166296 102.505874,33.0056011 C102.60373,32.8945726 102.742202,32.827666 102.89,32.82 C103.89,32.66 104.61,32.57 104.96,32.56 C105.193042,32.517696 105.433396,32.5679192 105.63,32.7 C105.807047,32.8808595 105.925525,33.1108456 105.97,33.36 C105.97,33.43 106.03,33.57 106.08,33.78 L106.2,34.19 C106.242473,34.3479773 106.306402,34.4993867 106.39,34.64 C106.595411,35.2122354 107.103932,35.6212812 107.706893,35.6992866 C108.309854,35.7772921 108.905728,35.5111226 109.25,35.01 C109.521488,34.6727684 109.669665,34.2529325 109.67,33.82 C109.686293,32.9525388 109.363382,32.1129709 108.77,31.48 C108.64,31.34 108.12,30.81 107.22,29.91 C105.55,28.24 104.68,27.36 104.62,27.29 C103.181497,25.8003473 102.45296,23.7640867 102.62,21.7 C102.690682,20.5676294 103.109831,19.4848271 103.82,18.6 C104.448837,17.8037239 105.330909,17.2462544 106.32,17.02 C108.273027,16.355486 110.434075,16.8685406 111.88,18.34 C112.701681,19.2173246 113.19608,20.3509102 113.28,21.55 C113.316089,21.6906513 113.294012,21.83991 113.21875,21.9640911 C113.143489,22.0882721 113.021387,22.1769098 112.88,22.21 C112.104442,22.4694303 111.296861,22.620852 110.48,22.66 C110.136686,22.6869365 109.819143,22.4766158 109.71,22.15 C109.71,22.08 109.63,21.94 109.55,21.75 C109.47,21.56 109.44,21.44 109.4,21.35 C109.04,20.52 108.51,20.18 107.8,20.3 C107.080079,20.4258302 106.553606,21.0491739 106.55,21.78 C106.417021,23.0222237 106.833446,24.2605394 107.69,25.17 C108.11793,25.6624547 108.593585,26.1113124 109.11,26.51 C109.983162,27.1927817 110.787033,27.9598091 111.51,28.8 C113.037315,30.4499377 113.722939,32.7095448 113.37,34.93 C113.239793,35.9348531 112.807364,36.8764338 112.13,37.63 C111.522591,38.3870671 110.664058,38.9014777 109.71,39.08 L108,39.18 C106.916934,39.2870266 105.828522,39.0377451 104.9,38.47 Z" id="Shape"></path>
        </g>
    </g>
</svg>